<svg xmlns="http://www.w3.org/2000/svg" viewBox="0 0 47.48 47.37"><defs><style>.cls-1{fill:#6e8510;}.cls-2{fill:#5a6f07;}.cls-3{fill:#93ad18;}</style></defs><g id="Calque_2" data-name="Calque 2"><g id="Calque_1-2" data-name="Calque 1"><path class="cls-1" d="M46.38,33c-2.68,1.5-6.22.06-8.24-3.33a9.38,9.38,0,0,1,7.08,1.22C45.81,31.23,46,32.24,46.38,33Z"/><path class="cls-1" d="M29.68,9.31a9.27,9.27,0,0,1,1.08-6.87c.37-.65,1.39-.93,2.09-1.36C34.68,3.43,33.1,7.34,29.68,9.31Z"/><path class="cls-1" d="M14.23,1.22c2.48.49,2.91,1,3.59,4.37a20.74,20.74,0,0,1,0,3.89,9.45,9.45,0,0,1-4.2-6C13.52,2.82,14,2,14.23,1.22Z"/><path class="cls-1" d="M9.37,17.82a11.89,11.89,0,0,1-5.62-.48c-1.75-.65-2-1-2.48-2.93C3.62,12.86,7.41,14.41,9.37,17.82Z"/><path class="cls-1" d="M18.18,38.26c-.25,1.74-.46,3.49-.77,5.21a3.15,3.15,0,0,1-2.92,2.69c-1.7-2.18-.05-6.27,3.25-8Z"/><path class="cls-1" d="M33.25,46.19a3.38,3.38,0,0,1-3.16-2.6A10,10,0,0,1,29.72,38a9.45,9.45,0,0,1,4.13,5.91C34,44.59,33.48,45.4,33.25,46.19Z"/><path class="cls-1" d="M9.37,29.74a9.41,9.41,0,0,1-5.44,4,7.27,7.27,0,0,1-2.67-.37C1.7,30.31,5.88,28.54,9.37,29.74Z"/><path class="cls-1" d="M46.24,14.38c-.39,2.78-2.58,3.12-4.65,3.47a21.85,21.85,0,0,1-3.34,0C39.1,14.94,43.69,12.94,46.24,14.38Z"/><path class="cls-2" d="M23.79,5.23a2.59,2.59,0,0,1-2.67-2.62A2.6,2.6,0,0,1,23.69,0a2.55,2.55,0,0,1,2.63,2.63A2.53,2.53,0,0,1,23.79,5.23Z"/><path class="cls-2" d="M11.43,8.83A2.62,2.62,0,1,1,6.2,8.7,2.54,2.54,0,0,1,8.82,6.2,2.54,2.54,0,0,1,11.43,8.83Z"/><path class="cls-2" d="M36.07,8.84a2.52,2.52,0,0,1,2.5-2.64A2.56,2.56,0,0,1,41.3,8.75a2.65,2.65,0,0,1-2.65,2.67A2.57,2.57,0,0,1,36.07,8.84Z"/><path class="cls-2" d="M8.85,36a2.54,2.54,0,0,1,2.58,2.56,2.62,2.62,0,1,1-5.23-.07A2.54,2.54,0,0,1,8.85,36Z"/><path class="cls-2" d="M5.23,23.69a2.51,2.51,0,0,1-2.53,2.6A2.57,2.57,0,0,1,0,23.7a2.64,2.64,0,0,1,2.68-2.63A2.56,2.56,0,0,1,5.23,23.69Z"/><path class="cls-2" d="M44.87,26.29a2.47,2.47,0,0,1-2.6-2.51,2.57,2.57,0,0,1,2.57-2.71,2.65,2.65,0,0,1,2.64,2.68A2.53,2.53,0,0,1,44.87,26.29Z"/><path class="cls-2" d="M36.07,38.59A2.45,2.45,0,0,1,38.63,36a2.56,2.56,0,0,1,2.67,2.6,2.61,2.61,0,0,1-2.59,2.58A2.54,2.54,0,0,1,36.07,38.59Z"/><path class="cls-2" d="M26.32,44.85a2.46,2.46,0,0,1-2.7,2.52,2.53,2.53,0,0,1-2.5-2.64,2.64,2.64,0,0,1,2.62-2.57A2.55,2.55,0,0,1,26.32,44.85Z"/><path class="cls-1" d="M12.57,25.59l3.8,1.16L14.53,30.3l-3-1.55Z"/><path class="cls-1" d="M17.13,14.48l1.58-3,3.14,1-1.15,3.8Z"/><path class="cls-1" d="M33,30.3l-1.86-3.54,3.8-1.19,1,3.17Z"/><path class="cls-1" d="M33,17.11l3,1.55-1,3.17L31.1,20.66Z"/><path class="cls-1" d="M28.78,35.87l-3.13-1c.33-1.05.64-2.16,1-3.22.06-.15.64-.26.87-.16.93.41,1.82.91,2.79,1.41Z"/><path class="cls-1" d="M18.7,35.87,17.15,33l3.54-1.9,1.17,3.82Z"/><path class="cls-1" d="M14.51,17.11l1.88,3.52L12.6,21.84l-1-3.16Z"/><path class="cls-1" d="M28.7,11.39l1.64,3.08-3.26,1.74c-.19-.16-.28-.19-.3-.25-.32-1.05-1.12-2.27-.82-3.1S27.71,11.88,28.7,11.39Z"/><path class="cls-1" d="M16.2,13.48a10.48,10.48,0,0,1-3-6.75c1.24,1.21,2.58,2.49,3.88,3.8a.93.93,0,0,1,.18.8C17,12,16.6,12.67,16.2,13.48Z"/><path class="cls-1" d="M6.67,13.15a10.59,10.59,0,0,1,6.83,3l-2.4,1.22Z"/><path class="cls-1" d="M11.13,25.65l-.84,2.65h-6C5.49,26.85,8.34,25.65,11.13,25.65Z"/><path class="cls-1" d="M31.3,33.93a10.35,10.35,0,0,1,3,6.78c-1.19-1.18-2.54-2.49-3.86-3.83a.92.92,0,0,1-.21-.8C30.52,35.36,30.92,34.69,31.3,33.93Z"/><path class="cls-1" d="M36.38,17.38,34,16.17a10.68,10.68,0,0,1,6.85-3Z"/><path class="cls-1" d="M25.65,11.11A10.63,10.63,0,0,1,28.52,4C28.39,5,28.2,6,28.17,6.9s.15,1.89.17,2.84a.78.78,0,0,1-.38.62C27.27,10.63,26.55,10.83,25.65,11.11Z"/><path class="cls-1" d="M43.23,28.25h-6l-.89-2.63A10.4,10.4,0,0,1,43.23,28.25Z"/><path class="cls-1" d="M25.64,36.38c.29,0,.45,0,.6.08,2,.51,2,.51,1.94,2.56,0,1.41.14,2.82.22,4.26A10.47,10.47,0,0,1,25.64,36.38Z"/><path class="cls-1" d="M34.29,6.72a10.42,10.42,0,0,1-3,6.75c-.4-.78-.8-1.45-1.09-2.16a1,1,0,0,1,.24-.8C31.75,9.19,33.08,7.91,34.29,6.72Z"/><path class="cls-1" d="M11.31,30.13l2.19,1.11a9.69,9.69,0,0,1-5.88,2.92Z"/><path class="cls-1" d="M40.79,34.21a10,10,0,0,1-6.72-2.9,11.37,11.37,0,0,1,1-.64c1.46-.8,1.41-.75,2.56.52C38.53,32.23,39.64,33.14,40.79,34.21Z"/><path class="cls-1" d="M21.77,36.3a10.13,10.13,0,0,1-2.62,7c0-1.81,0-3.62,0-5.43a1.2,1.2,0,0,1,.57-.85A17.26,17.26,0,0,1,21.77,36.3Z"/><path class="cls-1" d="M16.12,34c.18.26.36.47.5.71,1,1.7.92,1.64-.5,2.94-1.05,1-1.93,2.08-2.93,3.18A10.4,10.4,0,0,1,16.12,34Z"/><path class="cls-1" d="M11.11,21.74a10.2,10.2,0,0,1-6.92-2.62c1.86,0,3.68,0,5.49,0a1,1,0,0,1,.76.51A18.33,18.33,0,0,1,11.11,21.74Z"/><path class="cls-1" d="M36.46,21.66c0-.31.08-.54.14-.77.45-1.85.45-1.76,2.37-1.63a35.34,35.34,0,0,0,4.15-.18C42.17,20.52,38.92,21.85,36.46,21.66Z"/><path class="cls-1" d="M19.16,4.2a9.61,9.61,0,0,1,2.55,6.89,16.6,16.6,0,0,1-2.14-.73c-.23-.12-.38-.62-.39-.95C19.14,7.69,19.16,6,19.16,4.2Z"/><path class="cls-1" d="M32,16.18,29.88,20l-2.36-2.5,3.7-2.07Z"/><path class="cls-1" d="M17.47,19.74a34.5,34.5,0,0,1-1.71-3c-.15-.34.17-.89.28-1.38l4,2.24Z"/><path class="cls-1" d="M15.5,31.18l2-3.53L19.77,30l-3.53,2Z"/><path class="cls-1" d="M27.48,29.86l2.46-2.36,2,3.65-.71.82Z"/><path class="cls-1" d="M16.56,22v3.33l-3.84-1.13V23.16Z"/><path class="cls-1" d="M30.92,25.37V22.05l3.88,1.12v1.06Z"/><path class="cls-1" d="M22.08,30.89h3.31l-1.11,3.86c-.78.26-1.21.12-1.35-.84A26.16,26.16,0,0,0,22.08,30.89Z"/><path class="cls-1" d="M24.28,12.67l1.12,3.84H22.07a24,24,0,0,0,.85-3C23.06,12.65,23.46,12.48,24.28,12.67Z"/><path class="cls-3" d="M29.34,23.53a8.66,8.66,0,0,1,.36-2.46,8.48,8.48,0,0,1-3.24-3,8.4,8.4,0,0,1-5.54,0,8.46,8.46,0,0,1-3.15,3.27,8.5,8.5,0,0,1,.64,3.23,9,9,0,0,1-.23,1.95,8.57,8.57,0,0,1,2.66,2.89,8.47,8.47,0,0,1,2.9-.52,8.55,8.55,0,0,1,2.59.4A8.51,8.51,0,0,1,29.7,26,8.73,8.73,0,0,1,29.34,23.53Z"/></g></g></svg>